<?xml version="1.0" encoding="UTF-8"?>
<!DOCTYPE svg PUBLIC "-//W3C//DTD SVG 1.1//EN" "http://www.w3.org/Graphics/SVG/1.1/DTD/svg11.dtd">
<svg version="1.2" width="163mm" height="216mm" viewBox="0 0 16300 21600" preserveAspectRatio="xMidYMid" fill-rule="evenodd" stroke-width="28.222" stroke-linejoin="round" xmlns="http://www.w3.org/2000/svg" xmlns:ooo="http://xml.openoffice.org/svg/export" xmlns:xlink="http://www.w3.org/1999/xlink" xmlns:presentation="http://sun.com/xmlns/staroffice/presentation" xmlns:smil="http://www.w3.org/2001/SMIL20/" xmlns:anim="urn:oasis:names:tc:opendocument:xmlns:animation:1.0" xml:space="preserve">
 <defs class="ClipPathGroup">
  <clipPath id="presentation_clip_path" clipPathUnits="userSpaceOnUse">
   <rect x="0" y="0" width="16300" height="21600"/>
  </clipPath>
  <clipPath id="presentation_clip_path_shrink" clipPathUnits="userSpaceOnUse">
   <rect x="16" y="21" width="16268" height="21557"/>
  </clipPath>
 </defs>
 <defs class="TextShapeIndex">
  <g ooo:slide="id1" ooo:id-list="id3 id4 id5 id6"/>
 </defs>
 <defs class="EmbeddedBulletChars">
  <g id="bullet-char-template-57356" transform="scale(0.00048828125,-0.00048828125)">
   <path d="M 580,1141 L 1163,571 580,0 -4,571 580,1141 Z"/>
  </g>
  <g id="bullet-char-template-57354" transform="scale(0.00048828125,-0.00048828125)">
   <path d="M 8,1128 L 1137,1128 1137,0 8,0 8,1128 Z"/>
  </g>
  <g id="bullet-char-template-10146" transform="scale(0.00048828125,-0.00048828125)">
   <path d="M 174,0 L 602,739 174,1481 1456,739 174,0 Z M 1358,739 L 309,1346 659,739 1358,739 Z"/>
  </g>
  <g id="bullet-char-template-10132" transform="scale(0.00048828125,-0.00048828125)">
   <path d="M 2015,739 L 1276,0 717,0 1260,543 174,543 174,936 1260,936 717,1481 1274,1481 2015,739 Z"/>
  </g>
  <g id="bullet-char-template-10007" transform="scale(0.00048828125,-0.00048828125)">
   <path d="M 0,-2 C -7,14 -16,27 -25,37 L 356,567 C 262,823 215,952 215,954 215,979 228,992 255,992 264,992 276,990 289,987 310,991 331,999 354,1012 L 381,999 492,748 772,1049 836,1024 860,1049 C 881,1039 901,1025 922,1006 886,937 835,863 770,784 769,783 710,716 594,584 L 774,223 C 774,196 753,168 711,139 L 727,119 C 717,90 699,76 672,76 641,76 570,178 457,381 L 164,-76 C 142,-110 111,-127 72,-127 30,-127 9,-110 8,-76 1,-67 -2,-52 -2,-32 -2,-23 -1,-13 0,-2 Z"/>
  </g>
  <g id="bullet-char-template-10004" transform="scale(0.00048828125,-0.00048828125)">
   <path d="M 285,-33 C 182,-33 111,30 74,156 52,228 41,333 41,471 41,549 55,616 82,672 116,743 169,778 240,778 293,778 328,747 346,684 L 369,508 C 377,444 397,411 428,410 L 1163,1116 C 1174,1127 1196,1133 1229,1133 1271,1133 1292,1118 1292,1087 L 1292,965 C 1292,929 1282,901 1262,881 L 442,47 C 390,-6 338,-33 285,-33 Z"/>
  </g>
  <g id="bullet-char-template-9679" transform="scale(0.00048828125,-0.00048828125)">
   <path d="M 813,0 C 632,0 489,54 383,161 276,268 223,411 223,592 223,773 276,916 383,1023 489,1130 632,1184 813,1184 992,1184 1136,1130 1245,1023 1353,916 1407,772 1407,592 1407,412 1353,268 1245,161 1136,54 992,0 813,0 Z"/>
  </g>
  <g id="bullet-char-template-8226" transform="scale(0.00048828125,-0.00048828125)">
   <path d="M 346,457 C 273,457 209,483 155,535 101,586 74,649 74,723 74,796 101,859 155,911 209,963 273,989 346,989 419,989 480,963 531,910 582,859 608,796 608,723 608,648 583,586 532,535 482,483 420,457 346,457 Z"/>
  </g>
  <g id="bullet-char-template-8211" transform="scale(0.00048828125,-0.00048828125)">
   <path d="M -4,459 L 1135,459 1135,606 -4,606 -4,459 Z"/>
  </g>
  <g id="bullet-char-template-61548" transform="scale(0.00048828125,-0.00048828125)">
   <path d="M 173,740 C 173,903 231,1043 346,1159 462,1274 601,1332 765,1332 928,1332 1067,1274 1183,1159 1299,1043 1357,903 1357,740 1357,577 1299,437 1183,322 1067,206 928,148 765,148 601,148 462,206 346,322 231,437 173,577 173,740 Z"/>
  </g>
 </defs>
 <g>
  <g id="id2" class="Master_Slide">
   <g id="bg-id2" class="Background"/>
   <g id="bo-id2" class="BackgroundObjects"/>
  </g>
 </g>
 <g class="SlideGroup">
  <g>
   <g id="container-id1">
    <g id="id1" class="Slide" clip-path="url(#presentation_clip_path)">
     <g class="Page">
      <g class="com.sun.star.drawing.ClosedBezierShape">
       <g id="id3">
        <rect class="BoundingBox" stroke="none" fill="none" x="0" y="0" width="16242" height="21532"/>
        <path fill="rgb(0,0,0)" stroke="none" d="M 8121,21531 L 8300,21071 C 8949,19402 10277,18089 11952,17460 13920,16722 15480,15181 16241,13222 L 14383,12823 C 13228,11872 12501,10336 13284,8655 13103,5860 11647,3303 9336,1721 8732,1308 8305,694 8121,0 7938,694 7510,1308 6907,1721 4595,3303 3139,5860 2957,8655 3740,10336 3013,11872 1858,12823 L 0,13222 C 762,15181 2321,16722 4289,17460 5965,18089 7294,19402 7942,21071 L 8121,21531 Z"/>
       </g>
      </g>
      <g class="com.sun.star.drawing.ClosedBezierShape">
       <g id="id4">
        <rect class="BoundingBox" stroke="none" fill="none" x="6335" y="8324" width="883" height="672"/>
        <path fill="rgb(255,0,0)" stroke="none" d="M 6990,8617 C 7041,8664 7088,8715 7131,8771 L 7208,8872 7216,8902 C 7112,8943 7004,8972 6893,8989 6740,9012 6586,8961 6477,8852 6368,8743 6317,8588 6340,8436 L 6356,8324 C 6440,8334 6522,8354 6600,8382 6566,8432 6545,8498 6545,8570 6545,8729 6645,8858 6769,8858 6778,8858 6787,8857 6795,8856 6761,8835 6737,8797 6737,8754 6737,8688 6790,8635 6854,8635 6904,8635 6947,8667 6964,8712 6977,8683 6986,8651 6990,8617 Z"/>
       </g>
      </g>
      <g class="com.sun.star.drawing.ClosedBezierShape">
       <g id="id5">
        <rect class="BoundingBox" stroke="none" fill="none" x="9024" y="8324" width="884" height="672"/>
        <path fill="rgb(129,212,26)" stroke="none" d="M 9250,8617 C 9255,8651 9264,8683 9277,8712 9293,8667 9336,8635 9386,8635 9451,8635 9503,8688 9503,8754 9503,8797 9480,8835 9445,8856 9454,8857 9462,8858 9471,8858 9595,8858 9695,8729 9695,8570 9695,8498 9675,8432 9641,8382 9719,8354 9800,8334 9884,8324 L 9901,8436 C 9923,8588 9873,8743 9763,8852 9654,8961 9500,9012 9348,8989 9237,8972 9128,8943 9024,8902 L 9032,8872 9110,8771 C 9152,8715 9199,8664 9250,8617 Z"/>
       </g>
      </g>
      <g class="com.sun.star.drawing.ClosedBezierShape">
       <g id="id6">
        <rect class="BoundingBox" stroke="none" fill="none" x="5232" y="6091" width="5779" height="3932"/>
        <path fill="rgb(238,238,238)" stroke="none" d="M 5565,10022 C 5383,9755 5260,9462 5244,9159 L 5232,8948 C 5303,8667 5352,8370 5398,8066 L 5926,7769 C 5979,7869 6044,7961 6118,8043 6044,8217 6052,8417 6142,8586 L 6185,8668 5798,8714 C 6189,9066 6724,9209 7238,9100 L 7399,9066 7577,9163 C 7527,8927 7404,8713 7224,8552 L 7149,8484 7166,8484 7412,8474 C 7768,8460 7713,7916 7362,8024 6771,8206 6199,7889 6011,7426 L 5413,7969 5427,7874 C 5559,6983 6259,6284 7149,6152 L 8121,6091 9093,6152 C 9984,6284 10683,6983 10815,7874 L 10830,7969 10232,7426 C 10044,7889 9472,8206 8880,8024 8529,7916 8474,8460 8831,8474 L 9077,8484 9094,8484 9019,8552 C 8839,8713 8715,8927 8665,9163 L 8844,9066 9004,9100 C 9518,9209 10053,9066 10444,8714 L 10057,8668 10101,8586 C 10190,8417 10198,8217 10124,8043 10198,7961 10263,7869 10316,7769 L 10844,8066 C 10890,8370 10939,8667 11010,8948 L 10999,9159 C 10983,9462 10859,9755 10677,10022 L 5565,10022 Z"/>
       </g>
      </g>
     </g>
    </g>
   </g>
  </g>
 </g>
</svg>